<svg xmlns="http://www.w3.org/2000/svg" version="1.1" width="252.7mm" height="172.7mm" viewBox = " 0 0 895.3944369999999 611.929637" >
<!-- Front--> 
<g transform="translate(22.5000185, 22.5000185) " > 
<polygon style="stroke:#000000; fill:none; stroke-width:0.90000074" points="0, 0 33.661445, 0 33.661445, 10.62993 67.32289, 10.62993 67.32289, 0 88.58275, 0 88.58275, 10.62993 109.84261000000001, 10.62993 109.84261000000001, 0 131.10246999999998, 0 131.10246999999998, 10.62993 152.36233, 10.62993 152.36233, 0 173.62219, 0 173.62219, 10.62993 194.88205, 10.62993 194.88205, 0 216.14191, 0 216.14191, 10.62993 249.803355, 10.62993 249.803355, 0 283.46479999999997, 0 283.46479999999997, 33.661445 272.83486999999997, 33.661445 272.83486999999997, 67.32289 283.46479999999997, 67.32289 283.46479999999997, 88.58275 272.83486999999997, 88.58275 272.83486999999997, 109.84261000000001 283.46479999999997, 109.84261000000001 283.46479999999997, 131.10246999999998 272.83486999999997, 131.10246999999998 272.83486999999997, 152.36233 283.46479999999997, 152.36233 283.46479999999997, 173.62219 272.83486999999997, 173.62219 272.83486999999997, 194.88205 283.46479999999997, 194.88205 283.46479999999997, 216.14191 272.83486999999997, 216.14191 272.83486999999997, 249.803355 283.46479999999997, 249.803355 283.46479999999997, 283.46479999999997 249.803355, 283.46479999999997 249.803355, 272.83486999999997 216.14191, 272.83486999999997 216.14191, 283.46479999999997 194.88205, 283.46479999999997 194.88205, 272.83486999999997 173.62219, 272.83486999999997 173.62219, 283.46479999999997 152.36233, 283.46479999999997 152.36233, 272.83486999999997 131.10246999999998, 272.83486999999997 131.10246999999998, 283.46479999999997 109.84261000000001, 283.46479999999997 109.84261000000001, 272.83486999999997 88.58275, 272.83486999999997 88.58275, 283.46479999999997 67.32289, 283.46479999999997 67.32289, 272.83486999999997 33.661445, 272.83486999999997 33.661445, 283.46479999999997 0, 283.46479999999997 0, 249.803355 10.62993, 249.803355 10.62993, 216.14191 0, 216.14191 0, 194.88205 10.62993, 194.88205 10.62993, 173.62219 0, 173.62219 0, 152.36233 10.62993, 152.36233 10.62993, 131.10246999999998 0, 131.10246999999998 0, 109.84261000000001 10.62993, 109.84261000000001 10.62993, 88.58275 0, 88.58275 0, 67.32289 10.62993, 67.32289 10.62993, 33.661445 0, 33.661445 "/> 
</g>
<!-- Back--> 
<g transform="translate(305.9648185, 22.5000185) " > 
<polygon style="stroke:#000000; fill:none; stroke-width:0.90000074" points="0, 0 33.661445, 0 33.661445, 10.62993 67.32289, 10.62993 67.32289, 0 88.58275, 0 88.58275, 10.62993 109.84261000000001, 10.62993 109.84261000000001, 0 131.10246999999998, 0 131.10246999999998, 10.62993 152.36233, 10.62993 152.36233, 0 173.62219, 0 173.62219, 10.62993 194.88205, 10.62993 194.88205, 0 216.14191, 0 216.14191, 10.62993 249.803355, 10.62993 249.803355, 0 283.46479999999997, 0 283.46479999999997, 33.661445 272.83486999999997, 33.661445 272.83486999999997, 67.32289 283.46479999999997, 67.32289 283.46479999999997, 88.58275 272.83486999999997, 88.58275 272.83486999999997, 109.84261000000001 283.46479999999997, 109.84261000000001 283.46479999999997, 131.10246999999998 272.83486999999997, 131.10246999999998 272.83486999999997, 152.36233 283.46479999999997, 152.36233 283.46479999999997, 173.62219 272.83486999999997, 173.62219 272.83486999999997, 194.88205 283.46479999999997, 194.88205 283.46479999999997, 216.14191 272.83486999999997, 216.14191 272.83486999999997, 249.803355 283.46479999999997, 249.803355 283.46479999999997, 283.46479999999997 249.803355, 283.46479999999997 249.803355, 272.83486999999997 216.14191, 272.83486999999997 216.14191, 283.46479999999997 194.88205, 283.46479999999997 194.88205, 272.83486999999997 173.62219, 272.83486999999997 173.62219, 283.46479999999997 152.36233, 283.46479999999997 152.36233, 272.83486999999997 131.10246999999998, 272.83486999999997 131.10246999999998, 283.46479999999997 109.84261000000001, 283.46479999999997 109.84261000000001, 272.83486999999997 88.58275, 272.83486999999997 88.58275, 283.46479999999997 67.32289, 283.46479999999997 67.32289, 272.83486999999997 33.661445, 272.83486999999997 33.661445, 283.46479999999997 0, 283.46479999999997 0, 249.803355 10.62993, 249.803355 10.62993, 216.14191 0, 216.14191 0, 194.88205 10.62993, 194.88205 10.62993, 173.62219 0, 173.62219 0, 152.36233 10.62993, 152.36233 10.62993, 131.10246999999998 0, 131.10246999999998 0, 109.84261000000001 10.62993, 109.84261000000001 10.62993, 88.58275 0, 88.58275 0, 67.32289 10.62993, 67.32289 10.62993, 33.661445 0, 33.661445 "/> 
</g>
<!-- Left--> 
<g transform="translate(589.4296185, 22.5000185) " > 
<polygon style="stroke:#000000; fill:none; stroke-width:0.90000074" points="10.62993, 0 33.661445, 0 33.661445, 10.62993 67.32289, 10.62993 67.32289, 0 88.58275, 0 88.58275, 10.62993 109.84261000000001, 10.62993 109.84261000000001, 0 131.10246999999998, 0 131.10246999999998, 10.62993 152.36233, 10.62993 152.36233, 0 173.62219, 0 173.62219, 10.62993 194.88205, 10.62993 194.88205, 0 216.14191, 0 216.14191, 10.62993 249.803355, 10.62993 249.803355, 0 272.83486999999997, 0 272.83486999999997, 33.661445 283.46479999999997, 33.661445 283.46479999999997, 67.32289 272.83486999999997, 67.32289 272.83486999999997, 88.58275 283.46479999999997, 88.58275 283.46479999999997, 109.84261000000001 272.83486999999997, 109.84261000000001 272.83486999999997, 131.10246999999998 283.46479999999997, 131.10246999999998 283.46479999999997, 152.36233 272.83486999999997, 152.36233 272.83486999999997, 173.62219 283.46479999999997, 173.62219 283.46479999999997, 194.88205 272.83486999999997, 194.88205 272.83486999999997, 216.14191 283.46479999999997, 216.14191 283.46479999999997, 249.803355 272.83486999999997, 249.803355 272.83486999999997, 283.46479999999997 249.803355, 283.46479999999997 249.803355, 272.83486999999997 216.14191, 272.83486999999997 216.14191, 283.46479999999997 194.88205, 283.46479999999997 194.88205, 272.83486999999997 173.62219, 272.83486999999997 173.62219, 283.46479999999997 152.36233, 283.46479999999997 152.36233, 272.83486999999997 131.10246999999998, 272.83486999999997 131.10246999999998, 283.46479999999997 109.84261000000001, 283.46479999999997 109.84261000000001, 272.83486999999997 88.58275, 272.83486999999997 88.58275, 283.46479999999997 67.32289, 283.46479999999997 67.32289, 272.83486999999997 33.661445, 272.83486999999997 33.661445, 283.46479999999997 10.62993, 283.46479999999997 10.62993, 249.803355 0, 249.803355 0, 216.14191 10.62993, 216.14191 10.62993, 194.88205 0, 194.88205 0, 173.62219 10.62993, 173.62219 10.62993, 152.36233 0, 152.36233 0, 131.10246999999998 10.62993, 131.10246999999998 10.62993, 109.84261000000001 0, 109.84261000000001 0, 88.58275 10.62993, 88.58275 10.62993, 67.32289 0, 67.32289 0, 33.661445 10.62993, 33.661445 "/> 
</g>
<!-- Right--> 
<g transform="translate(589.4296185, 305.9648185) " > 
<polygon style="stroke:#000000; fill:none; stroke-width:0.90000074" points="10.62993, 0 33.661445, 0 33.661445, 10.62993 67.32289, 10.62993 67.32289, 0 88.58275, 0 88.58275, 10.62993 109.84261000000001, 10.62993 109.84261000000001, 0 131.10246999999998, 0 131.10246999999998, 10.62993 152.36233, 10.62993 152.36233, 0 173.62219, 0 173.62219, 10.62993 194.88205, 10.62993 194.88205, 0 216.14191, 0 216.14191, 10.62993 249.803355, 10.62993 249.803355, 0 272.83486999999997, 0 272.83486999999997, 33.661445 283.46479999999997, 33.661445 283.46479999999997, 67.32289 272.83486999999997, 67.32289 272.83486999999997, 88.58275 283.46479999999997, 88.58275 283.46479999999997, 109.84261000000001 272.83486999999997, 109.84261000000001 272.83486999999997, 131.10246999999998 283.46479999999997, 131.10246999999998 283.46479999999997, 152.36233 272.83486999999997, 152.36233 272.83486999999997, 173.62219 283.46479999999997, 173.62219 283.46479999999997, 194.88205 272.83486999999997, 194.88205 272.83486999999997, 216.14191 283.46479999999997, 216.14191 283.46479999999997, 249.803355 272.83486999999997, 249.803355 272.83486999999997, 283.46479999999997 249.803355, 283.46479999999997 249.803355, 272.83486999999997 216.14191, 272.83486999999997 216.14191, 283.46479999999997 194.88205, 283.46479999999997 194.88205, 272.83486999999997 173.62219, 272.83486999999997 173.62219, 283.46479999999997 152.36233, 283.46479999999997 152.36233, 272.83486999999997 131.10246999999998, 272.83486999999997 131.10246999999998, 283.46479999999997 109.84261000000001, 283.46479999999997 109.84261000000001, 272.83486999999997 88.58275, 272.83486999999997 88.58275, 283.46479999999997 67.32289, 283.46479999999997 67.32289, 272.83486999999997 33.661445, 272.83486999999997 33.661445, 283.46479999999997 10.62993, 283.46479999999997 10.62993, 249.803355 0, 249.803355 0, 216.14191 10.62993, 216.14191 10.62993, 194.88205 0, 194.88205 0, 173.62219 10.62993, 173.62219 10.62993, 152.36233 0, 152.36233 0, 131.10246999999998 10.62993, 131.10246999999998 10.62993, 109.84261000000001 0, 109.84261000000001 0, 88.58275 10.62993, 88.58275 10.62993, 67.32289 0, 67.32289 0, 33.661445 10.62993, 33.661445 "/> 
</g>
<!-- Top--> 
<g transform="translate(22.5000185, 305.9648185) " > 
<polygon style="stroke:#000000; fill:none; stroke-width:0.90000074" points="10.62993, 10.62993 33.661445, 10.62993 33.661445, 0 67.32289, 0 67.32289, 10.62993 88.58275, 10.62993 88.58275, 0 109.84261000000001, 0 109.84261000000001, 10.62993 131.10246999999998, 10.62993 131.10246999999998, 0 152.36233, 0 152.36233, 10.62993 173.62219, 10.62993 173.62219, 0 194.88205, 0 194.88205, 10.62993 216.14191, 10.62993 216.14191, 0 249.803355, 0 249.803355, 10.62993 272.83486999999997, 10.62993 272.83486999999997, 33.661445 283.46479999999997, 33.661445 283.46479999999997, 67.32289 272.83486999999997, 67.32289 272.83486999999997, 88.58275 283.46479999999997, 88.58275 283.46479999999997, 109.84261000000001 272.83486999999997, 109.84261000000001 272.83486999999997, 131.10246999999998 283.46479999999997, 131.10246999999998 283.46479999999997, 152.36233 272.83486999999997, 152.36233 272.83486999999997, 173.62219 283.46479999999997, 173.62219 283.46479999999997, 194.88205 272.83486999999997, 194.88205 272.83486999999997, 216.14191 283.46479999999997, 216.14191 283.46479999999997, 249.803355 272.83486999999997, 249.803355 272.83486999999997, 272.83486999999997 249.803355, 272.83486999999997 249.803355, 283.46479999999997 216.14191, 283.46479999999997 216.14191, 272.83486999999997 194.88205, 272.83486999999997 194.88205, 283.46479999999997 173.62219, 283.46479999999997 173.62219, 272.83486999999997 152.36233, 272.83486999999997 152.36233, 283.46479999999997 131.10246999999998, 283.46479999999997 131.10246999999998, 272.83486999999997 109.84261000000001, 272.83486999999997 109.84261000000001, 283.46479999999997 88.58275, 283.46479999999997 88.58275, 272.83486999999997 67.32289, 272.83486999999997 67.32289, 283.46479999999997 33.661445, 283.46479999999997 33.661445, 272.83486999999997 10.62993, 272.83486999999997 10.62993, 249.803355 0, 249.803355 0, 216.14191 10.62993, 216.14191 10.62993, 194.88205 0, 194.88205 0, 173.62219 10.62993, 173.62219 10.62993, 152.36233 0, 152.36233 0, 131.10246999999998 10.62993, 131.10246999999998 10.62993, 109.84261000000001 0, 109.84261000000001 0, 88.58275 10.62993, 88.58275 10.62993, 67.32289 0, 67.32289 0, 33.661445 10.62993, 33.661445 "/> 
</g>
<!-- Bottom--> 
<g transform="translate(305.9648185, 305.9648185) " > 
<polygon style="stroke:#000000; fill:none; stroke-width:0.90000074" points="10.62993, 10.62993 33.661445, 10.62993 33.661445, 0 67.32289, 0 67.32289, 10.62993 88.58275, 10.62993 88.58275, 0 109.84261000000001, 0 109.84261000000001, 10.62993 131.10246999999998, 10.62993 131.10246999999998, 0 152.36233, 0 152.36233, 10.62993 173.62219, 10.62993 173.62219, 0 194.88205, 0 194.88205, 10.62993 216.14191, 10.62993 216.14191, 0 249.803355, 0 249.803355, 10.62993 272.83486999999997, 10.62993 272.83486999999997, 33.661445 283.46479999999997, 33.661445 283.46479999999997, 67.32289 272.83486999999997, 67.32289 272.83486999999997, 88.58275 283.46479999999997, 88.58275 283.46479999999997, 109.84261000000001 272.83486999999997, 109.84261000000001 272.83486999999997, 131.10246999999998 283.46479999999997, 131.10246999999998 283.46479999999997, 152.36233 272.83486999999997, 152.36233 272.83486999999997, 173.62219 283.46479999999997, 173.62219 283.46479999999997, 194.88205 272.83486999999997, 194.88205 272.83486999999997, 216.14191 283.46479999999997, 216.14191 283.46479999999997, 249.803355 272.83486999999997, 249.803355 272.83486999999997, 272.83486999999997 249.803355, 272.83486999999997 249.803355, 283.46479999999997 216.14191, 283.46479999999997 216.14191, 272.83486999999997 194.88205, 272.83486999999997 194.88205, 283.46479999999997 173.62219, 283.46479999999997 173.62219, 272.83486999999997 152.36233, 272.83486999999997 152.36233, 283.46479999999997 131.10246999999998, 283.46479999999997 131.10246999999998, 272.83486999999997 109.84261000000001, 272.83486999999997 109.84261000000001, 283.46479999999997 88.58275, 283.46479999999997 88.58275, 272.83486999999997 67.32289, 272.83486999999997 67.32289, 283.46479999999997 33.661445, 283.46479999999997 33.661445, 272.83486999999997 10.62993, 272.83486999999997 10.62993, 249.803355 0, 249.803355 0, 216.14191 10.62993, 216.14191 10.62993, 194.88205 0, 194.88205 0, 173.62219 10.62993, 173.62219 10.62993, 152.36233 0, 152.36233 0, 131.10246999999998 10.62993, 131.10246999999998 10.62993, 109.84261000000001 0, 109.84261000000001 0, 88.58275 10.62993, 88.58275 10.62993, 67.32289 0, 67.32289 0, 33.661445 10.62993, 33.661445 "/> 
</g></svg>